<svg width="120" height="29" viewBox="0 0 120 29" fill="none" xmlns="http://www.w3.org/2000/svg">
<path d="M8.232 5.744C10.344 5.744 11.896 6.232 12.888 7.208C13.896 8.184 14.4 9.464 14.4 11.048C14.4 12.136 14.144 13.08 13.632 13.88C13.136 14.68 12.456 15.304 11.592 15.752C10.744 16.184 9.776 16.4 8.688 16.4C8.304 16.4 7.896 16.368 7.464 16.304C7.032 16.224 6.584 16.104 6.12 15.944L6.336 15.272C6.464 15.624 6.568 16.064 6.648 16.592C6.744 17.104 6.816 17.64 6.864 18.2C6.928 18.744 6.96 19.248 6.96 19.712C6.96 20.832 6.688 21.688 6.144 22.28C5.616 22.872 4.816 23.168 3.744 23.168C2.928 23.168 2.288 22.976 1.824 22.592C1.376 22.192 1.056 21.544 0.864 20.648C0.688 19.752 0.6 18.56 0.6 17.072C0.6 15.056 0.72 13.336 0.96 11.912C1.216 10.488 1.576 9.352 2.04 8.504C2.504 7.656 3.264 6.984 4.32 6.488C5.376 5.992 6.68 5.744 8.232 5.744ZM7.56 12.944C8.344 12.944 8.992 12.744 9.504 12.344C10.032 11.944 10.296 11.4 10.296 10.712C10.296 10.264 10.152 9.896 9.864 9.608C9.592 9.304 9.112 9.152 8.424 9.152C7.896 9.152 7.424 9.264 7.008 9.488C6.608 9.696 6.288 9.976 6.048 10.328C5.824 10.68 5.712 11.056 5.712 11.456C5.712 11.888 5.864 12.248 6.168 12.536C6.488 12.808 6.952 12.944 7.56 12.944ZM26.6484 23.24C25.7204 23.24 25.1044 23.032 24.8004 22.616C24.5124 22.184 24.3764 21.504 24.3924 20.576L24.8004 20.696C23.9364 22.44 22.2804 23.312 19.8324 23.312C18.7124 23.312 17.7844 23.12 17.0484 22.736C16.3284 22.336 15.7844 21.816 15.4164 21.176C15.0644 20.536 14.8884 19.824 14.8884 19.04C14.8884 17.712 15.3764 16.664 16.3524 15.896C17.3444 15.112 18.6564 14.72 20.2884 14.72C21.2804 14.72 22.1524 14.872 22.9044 15.176C23.6564 15.48 24.2884 15.904 24.8004 16.448L24.0324 16.4C24.0324 15.152 23.8004 14.264 23.3364 13.736C22.8724 13.208 22.1924 12.944 21.2964 12.944C20.9124 12.944 20.4964 13.008 20.0484 13.136C19.6164 13.248 19.1684 13.368 18.7044 13.496C18.2404 13.608 17.7684 13.664 17.2884 13.664C16.6484 13.664 16.1444 13.496 15.7764 13.16C15.4244 12.808 15.2484 12.36 15.2484 11.816C15.2484 11.08 15.5604 10.424 16.1844 9.848C16.8084 9.272 17.6324 8.816 18.6564 8.48C19.6964 8.144 20.8164 7.976 22.0164 7.976C23.5844 7.976 24.9444 8.272 26.0964 8.864C27.2484 9.44 28.0564 10.336 28.5204 11.552C28.8724 12.432 29.1204 13.424 29.2644 14.528C29.4244 15.632 29.5044 16.808 29.5044 18.056C29.5044 19.416 29.4084 20.472 29.2164 21.224C29.0244 21.976 28.7124 22.504 28.2804 22.808C27.8644 23.096 27.3204 23.24 26.6484 23.24ZM21.9444 19.736C22.2644 19.736 22.5844 19.688 22.9044 19.592C23.2404 19.48 23.5204 19.328 23.7444 19.136C23.9684 18.928 24.0804 18.68 24.0804 18.392C24.0804 18.104 23.9924 17.872 23.8164 17.696C23.6404 17.52 23.4004 17.392 23.0964 17.312C22.8084 17.232 22.4964 17.192 22.1604 17.192C21.5524 17.192 21.0644 17.32 20.6964 17.576C20.3284 17.832 20.1444 18.152 20.1444 18.536C20.1444 18.888 20.3044 19.176 20.6244 19.4C20.9604 19.624 21.4004 19.736 21.9444 19.736ZM30.2166 13.256C30.2166 11.592 30.4966 10.392 31.0566 9.656C31.6326 8.92 32.3926 8.552 33.3366 8.552C33.9606 8.552 34.4406 8.728 34.7766 9.08C35.1286 9.416 35.3686 9.872 35.4966 10.448C35.6406 11.024 35.7126 11.672 35.7126 12.392C35.7126 12.776 35.7046 13.224 35.6886 13.736C35.6726 14.248 35.6486 14.784 35.6166 15.344C35.5846 15.888 35.5446 16.4 35.4966 16.88H35.5926C35.9766 15.184 36.3766 13.864 36.7926 12.92C37.2086 11.96 37.6246 11.288 38.0406 10.904C38.4726 10.504 38.8806 10.304 39.2646 10.304C39.6966 10.304 40.1206 10.504 40.5366 10.904C40.9686 11.288 41.4006 11.944 41.8326 12.872C42.2646 13.784 42.6886 15.04 43.1046 16.64H43.2006C43.1366 15.824 43.0806 14.96 43.0326 14.048C42.9846 13.136 42.9606 12.312 42.9606 11.576C42.9606 10.344 43.2006 9.44 43.6806 8.864C44.1606 8.288 44.8326 8 45.6966 8C46.7366 8 47.4886 8.36 47.9526 9.08C48.4166 9.784 48.6486 10.736 48.6486 11.936C48.6486 12.816 48.5926 13.76 48.4806 14.768C48.3846 15.76 48.2486 16.72 48.0726 17.648C47.8966 18.576 47.6886 19.384 47.4486 20.072C47.0966 21.096 46.6566 21.872 46.1286 22.4C45.6166 22.928 44.9606 23.192 44.1606 23.192C43.6006 23.192 43.0166 23.008 42.4086 22.64C41.8166 22.272 41.2566 21.608 40.7286 20.648C40.2006 19.672 39.7686 18.304 39.4326 16.544H39.3366C39.0166 18.208 38.5766 19.496 38.0166 20.408C37.4726 21.304 36.8806 21.928 36.2406 22.28C35.6166 22.632 35.0166 22.808 34.4406 22.808C33.6086 22.808 32.8966 22.52 32.3046 21.944C31.7126 21.352 31.2646 20.432 30.9606 19.184C30.8006 18.56 30.6646 17.896 30.5526 17.192C30.4566 16.472 30.3766 15.768 30.3126 15.08C30.2486 14.392 30.2166 13.784 30.2166 13.256ZM67.8793 23.192C67.3033 23.192 66.7993 23.088 66.3673 22.88C65.9353 22.656 65.5993 22.272 65.3593 21.728C65.1193 21.184 64.9993 20.424 64.9993 19.448C64.9993 18.584 65.0633 17.672 65.1913 16.712C65.3193 15.736 65.4793 14.744 65.6713 13.736C65.8793 12.728 66.0713 11.76 66.2473 10.832H66.1513C65.6553 12.912 65.1193 14.4 64.5433 15.296C63.9673 16.192 63.3193 16.64 62.5993 16.64C62.1513 16.64 61.7433 16.48 61.3753 16.16C61.0233 15.84 60.6793 15.24 60.3433 14.36C60.0073 13.48 59.6553 12.208 59.2873 10.544H59.1913C59.3033 11.184 59.4153 11.864 59.5273 12.584C59.6553 13.304 59.7753 14.032 59.8873 14.768C59.9993 15.488 60.0873 16.176 60.1513 16.832C60.2313 17.488 60.2713 18.072 60.2713 18.584C60.2713 19.32 60.1833 19.992 60.0073 20.6C59.8313 21.192 59.5273 21.664 59.0953 22.016C58.6633 22.368 58.0633 22.544 57.2953 22.544C56.2713 22.544 55.5113 22.24 55.0153 21.632C54.5353 21.008 54.2953 19.984 54.2953 18.56C54.2953 17.968 54.3113 17.28 54.3433 16.496C54.3913 15.696 54.4473 14.872 54.5113 14.024C54.5913 13.176 54.6793 12.352 54.7753 11.552C54.8713 10.752 54.9673 10.056 55.0633 9.464C55.2873 8.12 55.6793 7.168 56.2393 6.608C56.8153 6.032 57.5433 5.744 58.4233 5.744C58.9993 5.744 59.5593 5.904 60.1033 6.224C60.6473 6.528 61.1433 7.104 61.5913 7.952C62.0553 8.784 62.4233 9.984 62.6953 11.552H62.7913C63.0473 9.92 63.3753 8.648 63.7753 7.736C64.1913 6.824 64.6553 6.192 65.1673 5.84C65.6793 5.472 66.2313 5.288 66.8233 5.288C67.7513 5.288 68.4873 5.592 69.0313 6.2C69.5753 6.792 69.9753 7.632 70.2313 8.72C70.4393 9.6 70.6153 10.616 70.7593 11.768C70.9193 12.92 71.0393 14.104 71.1193 15.32C71.1993 16.52 71.2393 17.648 71.2393 18.704C71.2393 20.352 70.9353 21.512 70.3273 22.184C69.7193 22.856 68.9033 23.192 67.8793 23.192ZM95.6387 8.552H95.3987C95.3187 7.848 95.3427 7.184 95.4707 6.56C95.5987 5.92 95.8707 5.408 96.2867 5.024C96.7027 4.624 97.3027 4.424 98.0867 4.424C98.8867 4.424 99.4707 4.608 99.8387 4.976C100.207 5.344 100.391 5.856 100.391 6.512C100.391 7.344 100.199 8.056 99.8147 8.648L99.6227 8.6C100.183 8.296 100.799 8.144 101.471 8.144C102.303 8.144 102.967 8.344 103.463 8.744C103.975 9.128 104.231 9.792 104.231 10.736C104.231 11.616 103.943 12.288 103.367 12.752C102.791 13.2 102.071 13.424 101.207 13.424C100.903 13.424 100.575 13.408 100.223 13.376C99.8867 13.328 99.5587 13.256 99.2387 13.16L99.3587 12.896C99.5667 13.376 99.7667 13.92 99.9587 14.528C100.151 15.12 100.319 15.744 100.463 16.4C100.623 17.04 100.743 17.672 100.823 18.296C100.919 18.904 100.967 19.448 100.967 19.928C100.967 20.952 100.711 21.76 100.199 22.352C99.7027 22.944 98.9347 23.24 97.8947 23.24C97.2547 23.24 96.7187 23.128 96.2867 22.904C95.8547 22.68 95.5107 22.368 95.2547 21.968C94.9987 21.568 94.8147 21.096 94.7027 20.552C94.5907 19.992 94.5347 19.392 94.5347 18.752C94.5347 18.208 94.5747 17.6 94.6547 16.928C94.7507 16.24 94.8867 15.528 95.0627 14.792C95.2387 14.056 95.4467 13.352 95.6867 12.68L95.9267 13.28C95.4147 13.696 94.7667 13.904 93.9827 13.904C93.1027 13.904 92.4147 13.688 91.9187 13.256C91.4227 12.808 91.1747 12.128 91.1747 11.216C91.1747 10.272 91.4387 9.544 91.9667 9.032C92.5107 8.52 93.2387 8.264 94.1507 8.264C94.4387 8.264 94.7107 8.296 94.9667 8.36C95.2227 8.408 95.4467 8.472 95.6387 8.552ZM112.485 23.192C110.517 23.192 108.949 22.928 107.781 22.4C106.613 21.872 105.765 21.112 105.237 20.12C104.725 19.128 104.469 17.944 104.469 16.568C104.469 14.824 104.829 13.344 105.549 12.128C106.285 10.896 107.285 9.952 108.549 9.296C109.829 8.64 111.277 8.312 112.893 8.312C114.813 8.312 116.221 8.696 117.117 9.464C118.013 10.216 118.461 11.208 118.461 12.44C118.461 13.416 118.189 14.264 117.645 14.984C117.117 15.704 116.373 16.256 115.413 16.64C114.469 17.024 113.373 17.216 112.125 17.216C111.549 17.216 110.989 17.176 110.445 17.096C109.901 17.016 109.413 16.912 108.981 16.784L109.557 15.44C109.509 15.824 109.485 16.208 109.485 16.592C109.485 17.28 109.733 17.768 110.229 18.056C110.741 18.344 111.445 18.488 112.341 18.488C113.205 18.488 113.941 18.4 114.549 18.224C115.157 18.032 115.693 17.848 116.157 17.672C116.621 17.48 117.061 17.384 117.477 17.384C117.765 17.384 118.061 17.456 118.365 17.6C118.669 17.744 118.925 17.968 119.133 18.272C119.341 18.576 119.445 18.984 119.445 19.496C119.445 20.2 119.181 20.832 118.653 21.392C118.125 21.952 117.341 22.392 116.301 22.712C115.277 23.032 114.005 23.192 112.485 23.192ZM111.093 14.816C111.861 14.816 112.525 14.632 113.085 14.264C113.645 13.88 113.925 13.416 113.925 12.872C113.925 12.52 113.797 12.232 113.541 12.008C113.285 11.784 112.933 11.672 112.485 11.672C111.989 11.672 111.517 11.768 111.069 11.96C110.637 12.152 110.285 12.4 110.013 12.704C109.741 13.008 109.605 13.344 109.605 13.712C109.605 14.064 109.733 14.336 109.989 14.528C110.261 14.72 110.629 14.816 111.093 14.816Z" fill="black"/>
<path d="M77.7425 8.86672C78.5429 8.27607 78.713 7.14838 78.1223 6.34797C77.5316 5.54756 76.404 5.37751 75.6036 5.96817C74.8031 6.55882 74.6331 7.68651 75.2237 8.48692C75.8144 9.28733 76.9421 9.45738 77.7425 8.86672Z" fill="#F06236" stroke="#F06236" stroke-width="2" stroke-linecap="round" stroke-linejoin="round"/>
<path d="M84.9539 8.02212C85.7543 7.43146 85.9244 6.30378 85.3337 5.50336C84.7431 4.70295 83.6154 4.53291 82.815 5.12356C82.0146 5.71422 81.8445 6.8419 82.4352 7.64231C83.0258 8.44273 84.1535 8.61277 84.9539 8.02212Z" fill="#F06236" stroke="#F06236" stroke-width="2" stroke-linecap="round" stroke-linejoin="round"/>
<path d="M90.6811 12.7498C91.4815 12.1591 91.6516 11.0314 91.0609 10.231C90.4702 9.43059 89.3426 9.26054 88.5422 9.8512C87.7417 10.4419 87.5717 11.5695 88.1623 12.37C88.753 13.1704 89.8807 13.3404 90.6811 12.7498Z" fill="#F06236" stroke="#F06236" stroke-width="2" stroke-linecap="round" stroke-linejoin="round"/>
<path d="M78.4322 12.8348C78.908 12.4836 79.4483 12.2297 80.0222 12.0874C80.5962 11.9451 81.1925 11.9172 81.7773 12.0054C82.362 12.0936 82.9236 12.296 83.4301 12.6012C83.9365 12.9065 84.3779 13.3085 84.7291 13.7843L86.6006 16.3205C87.0477 16.9268 87.2629 17.6731 87.2072 18.4244C87.1515 19.1756 86.8286 19.882 86.2969 20.4157C85.7653 20.9494 85.0601 21.2751 84.3091 21.3337C83.5581 21.3924 82.8109 21.1801 82.2029 20.7353C81.1576 19.9659 80.0232 19.7938 78.7999 20.219C78.0882 20.4645 77.312 20.4472 76.612 20.1701C75.9119 19.893 75.3341 19.3745 74.9832 18.7084C74.6323 18.0422 74.5314 17.2725 74.6988 16.5384C74.8662 15.8043 75.2909 15.1545 75.8959 14.7063L78.4322 12.8348Z" fill="#F06236" stroke="#F06236" stroke-width="2" stroke-linecap="round" stroke-linejoin="round"/>
</svg>
