<svg width="26" height="26" viewBox="0 0 26 26" fill="none" xmlns="http://www.w3.org/2000/svg">
<path d="M8.65627 8.78066C9.45668 8.19001 9.62672 7.06233 9.03607 6.26191C8.44541 5.4615 7.31773 5.29145 6.51732 5.88211C5.7169 6.47276 5.54686 7.60045 6.13751 8.40086C6.72817 9.20128 7.85585 9.37132 8.65627 8.78066Z" fill="#F06236" stroke="#F06236" stroke-width="2" stroke-linecap="round" stroke-linejoin="round"/>
<path d="M15.8677 7.93606C16.6681 7.34541 16.8381 6.21772 16.2475 5.41731C15.6568 4.61689 14.5292 4.44685 13.7287 5.0375C12.9283 5.62816 12.7583 6.75584 13.3489 7.55626C13.9396 8.35667 15.0673 8.52672 15.8677 7.93606Z" fill="#F06236" stroke="#F06236" stroke-width="2" stroke-linecap="round" stroke-linejoin="round"/>
<path d="M21.5949 12.6637C22.3953 12.073 22.5653 10.9454 21.9747 10.1449C21.384 9.34453 20.2563 9.17448 19.4559 9.76514C18.6555 10.3558 18.4855 11.4835 19.0761 12.2839C19.6668 13.0843 20.7945 13.2543 21.5949 12.6637Z" fill="#F06236" stroke="#F06236" stroke-width="2" stroke-linecap="round" stroke-linejoin="round"/>
<path d="M9.34594 12.7487C9.82174 12.3976 10.362 12.1436 10.936 12.0013C11.5099 11.859 12.1063 11.8312 12.691 11.9193C13.2757 12.0075 13.8374 12.21 14.3438 12.5152C14.8503 12.8204 15.2917 13.2224 15.6428 13.6982L17.5144 16.2344C17.9615 16.8407 18.1767 17.5871 18.121 18.3383C18.0652 19.0895 17.7423 19.796 17.2107 20.3297C16.6791 20.8634 15.9739 21.189 15.2229 21.2477C14.4719 21.3063 13.7247 21.094 13.1167 20.6493C12.0713 19.8799 10.937 19.7077 9.71368 20.1329C9.00193 20.3785 8.22579 20.3611 7.52572 20.0841C6.82564 19.807 6.24787 19.2884 5.89696 18.6223C5.54605 17.9562 5.44517 17.1864 5.61259 16.4524C5.78001 15.7183 6.20466 15.0684 6.8097 14.6203L9.34594 12.7487Z" fill="#F06236" stroke="#F06236" stroke-width="2" stroke-linecap="round" stroke-linejoin="round"/>
</svg>
